<svg xmlns="http://www.w3.org/2000/svg" xmlns:xlink="http://www.w3.org/1999/xlink" width="500" zoomAndPan="magnify" viewBox="0 0 375 374.999991" height="500" preserveAspectRatio="xMidYMid meet" version="1.0"><defs><g/></defs><g fill="#e4405f" fill-opacity="1"><g transform="translate(56.204972, 208.948288)"><g><path d="M 23.59375 -40.1875 C 25.96875 -40.1875 28.007812 -39.867188 29.71875 -39.234375 C 31.425781 -38.609375 32.984375 -37.71875 34.390625 -36.5625 C 34.796875 -36.226562 35.171875 -36.0625 35.515625 -36.0625 C 35.878906 -36.0625 36.171875 -36.328125 36.390625 -36.859375 C 36.617188 -37.398438 36.789062 -38.25 36.90625 -39.40625 L 38.1875 -39.40625 C 38.03125 -36.769531 37.953125 -32.128906 37.953125 -25.484375 L 36.671875 -25.484375 C 36.410156 -28.421875 35.925781 -30.738281 35.21875 -32.4375 C 34.519531 -34.144531 33.300781 -35.59375 31.5625 -36.78125 C 30.78125 -37.300781 29.878906 -37.707031 28.859375 -38 C 27.835938 -38.300781 26.828125 -38.453125 25.828125 -38.453125 C 23.148438 -38.453125 20.984375 -37.515625 19.328125 -35.640625 C 17.679688 -33.773438 16.515625 -31.410156 15.828125 -28.546875 C 15.140625 -25.691406 14.796875 -22.707031 14.796875 -19.59375 C 14.796875 -13.132812 15.582031 -8.304688 17.15625 -5.109375 C 18.738281 -1.921875 20.941406 -0.328125 23.765625 -0.328125 C 24.910156 -0.328125 25.820312 -0.550781 26.5 -1 C 27.269531 -1.5625 27.65625 -2.488281 27.65625 -3.78125 L 27.65625 -9.34375 C 27.65625 -11.207031 27.503906 -12.570312 27.203125 -13.4375 C 26.910156 -14.3125 26.382812 -14.90625 25.625 -15.21875 C 24.863281 -15.53125 23.671875 -15.726562 22.046875 -15.8125 L 22.046875 -16.921875 C 24.566406 -16.804688 28.109375 -16.75 32.671875 -16.75 C 36.492188 -16.75 39.347656 -16.804688 41.234375 -16.921875 L 41.234375 -15.8125 C 40.566406 -15.726562 40.078125 -15.578125 39.765625 -15.359375 C 39.453125 -15.140625 39.238281 -14.710938 39.125 -14.078125 C 39.007812 -13.453125 38.953125 -12.429688 38.953125 -11.015625 L 38.953125 0 L 37.84375 0 C 37.8125 -0.78125 37.644531 -1.503906 37.34375 -2.171875 C 37.050781 -2.835938 36.644531 -3.171875 36.125 -3.171875 C 35.34375 -3.171875 34.082031 -2.742188 32.34375 -1.890625 C 28.625 -0.109375 25.488281 0.78125 22.9375 0.78125 C 16.03125 0.78125 10.8125 -0.960938 7.28125 -4.453125 C 3.757812 -7.941406 2 -12.914062 2 -19.375 C 2 -23.445312 2.914062 -27.0625 4.75 -30.21875 C 6.59375 -33.375 9.144531 -35.820312 12.40625 -37.5625 C 15.675781 -39.3125 19.40625 -40.1875 23.59375 -40.1875 Z M 23.59375 -40.1875 "/></g></g></g><g fill="#e4405f" fill-opacity="1"><g transform="translate(98.276189, 208.948288)"><g><path d="M 16.03125 -29.671875 C 20.59375 -29.671875 24.113281 -28.472656 26.59375 -26.078125 C 29.082031 -23.679688 30.328125 -19.796875 30.328125 -14.421875 C 30.328125 -9.035156 29.082031 -5.15625 26.59375 -2.78125 C 24.113281 -0.40625 20.59375 0.78125 16.03125 0.78125 C 11.46875 0.78125 7.941406 -0.40625 5.453125 -2.78125 C 2.960938 -5.15625 1.71875 -9.035156 1.71875 -14.421875 C 1.71875 -19.796875 2.960938 -23.679688 5.453125 -26.078125 C 7.941406 -28.472656 11.46875 -29.671875 16.03125 -29.671875 Z M 16.03125 -28.546875 C 14.84375 -28.546875 13.894531 -27.375 13.1875 -25.03125 C 12.488281 -22.695312 12.140625 -19.160156 12.140625 -14.421875 C 12.140625 -9.671875 12.488281 -6.132812 13.1875 -3.8125 C 13.894531 -1.488281 14.84375 -0.328125 16.03125 -0.328125 C 17.21875 -0.328125 18.160156 -1.488281 18.859375 -3.8125 C 19.566406 -6.132812 19.921875 -9.671875 19.921875 -14.421875 C 19.921875 -19.160156 19.566406 -22.695312 18.859375 -25.03125 C 18.160156 -27.375 17.21875 -28.546875 16.03125 -28.546875 Z M 16.03125 -28.546875 "/></g></g></g><g fill="#e4405f" fill-opacity="1"><g transform="translate(130.330451, 208.948288)"><g><path d="M 16.03125 -29.671875 C 20.59375 -29.671875 24.113281 -28.472656 26.59375 -26.078125 C 29.082031 -23.679688 30.328125 -19.796875 30.328125 -14.421875 C 30.328125 -9.035156 29.082031 -5.15625 26.59375 -2.78125 C 24.113281 -0.40625 20.59375 0.78125 16.03125 0.78125 C 11.46875 0.78125 7.941406 -0.40625 5.453125 -2.78125 C 2.960938 -5.15625 1.71875 -9.035156 1.71875 -14.421875 C 1.71875 -19.796875 2.960938 -23.679688 5.453125 -26.078125 C 7.941406 -28.472656 11.46875 -29.671875 16.03125 -29.671875 Z M 16.03125 -28.546875 C 14.84375 -28.546875 13.894531 -27.375 13.1875 -25.03125 C 12.488281 -22.695312 12.140625 -19.160156 12.140625 -14.421875 C 12.140625 -9.671875 12.488281 -6.132812 13.1875 -3.8125 C 13.894531 -1.488281 14.84375 -0.328125 16.03125 -0.328125 C 17.21875 -0.328125 18.160156 -1.488281 18.859375 -3.8125 C 19.566406 -6.132812 19.921875 -9.671875 19.921875 -14.421875 C 19.921875 -19.160156 19.566406 -22.695312 18.859375 -25.03125 C 18.160156 -27.375 17.21875 -28.546875 16.03125 -28.546875 Z M 16.03125 -28.546875 "/></g></g></g><g fill="#e4405f" fill-opacity="1"><g transform="translate(162.384714, 208.948288)"><g><path d="M 29.890625 -6.125 C 29.890625 -4.414062 30.117188 -3.171875 30.578125 -2.390625 C 31.046875 -1.609375 31.851562 -1.21875 33 -1.21875 L 33 -0.0625 C 31.851562 -0.164062 30.703125 -0.21875 29.546875 -0.21875 C 25.691406 -0.21875 22.46875 0.0390625 19.875 0.5625 L 19.875 -3.390625 C 19.09375 -1.941406 18.171875 -0.882812 17.109375 -0.21875 C 16.054688 0.445312 14.710938 0.78125 13.078125 0.78125 C 9.660156 0.78125 6.910156 -0.488281 4.828125 -3.03125 C 2.753906 -5.570312 1.71875 -9.441406 1.71875 -14.640625 C 1.71875 -19.578125 2.820312 -23.316406 5.03125 -25.859375 C 7.238281 -28.398438 10.253906 -29.671875 14.078125 -29.671875 C 16.453125 -29.671875 18.382812 -29.203125 19.875 -28.265625 L 19.875 -36.84375 C 19.875 -38.550781 19.640625 -39.789062 19.171875 -40.5625 C 18.710938 -41.34375 17.90625 -41.734375 16.75 -41.734375 L 16.75 -42.90625 C 17.90625 -42.800781 19.054688 -42.75 20.203125 -42.75 C 24.054688 -42.75 27.285156 -43.003906 29.890625 -43.515625 Z M 15.859375 -2.109375 C 16.929688 -2.109375 17.867188 -2.488281 18.671875 -3.25 C 19.472656 -4.007812 19.875 -4.96875 19.875 -6.125 L 19.875 -27.109375 C 19.050781 -27.585938 18.175781 -27.828125 17.25 -27.828125 C 15.507812 -27.828125 14.222656 -26.722656 13.390625 -24.515625 C 12.554688 -22.304688 12.140625 -18.957031 12.140625 -14.46875 C 12.140625 -9.90625 12.472656 -6.703125 13.140625 -4.859375 C 13.804688 -3.023438 14.710938 -2.109375 15.859375 -2.109375 Z M 15.859375 -2.109375 "/></g></g></g><g fill="#ffffff" fill-opacity="1"><g transform="translate(198.594558, 208.948288)"><g><path d="M 5.671875 -4.734375 C 5.453125 -3.953125 5.34375 -3.300781 5.34375 -2.78125 C 5.34375 -1.78125 5.769531 -1.28125 6.625 -1.28125 C 7.363281 -1.28125 8.054688 -1.707031 8.703125 -2.5625 C 9.359375 -3.414062 10.054688 -4.878906 10.796875 -6.953125 L 11.515625 -9.015625 L 12.578125 -9.015625 L 11.1875 -4.953125 C 9.882812 -1.128906 7.660156 0.78125 4.515625 0.78125 C 1.953125 0.78125 0.671875 -0.425781 0.671875 -2.84375 C 0.671875 -3.769531 0.929688 -5.160156 1.453125 -7.015625 L 10.515625 -37.125 C 10.703125 -37.789062 10.796875 -38.3125 10.796875 -38.6875 C 10.796875 -39.425781 10.507812 -39.960938 9.9375 -40.296875 C 9.363281 -40.628906 8.390625 -40.796875 7.015625 -40.796875 L 7.40625 -41.96875 C 9.375 -42 11.144531 -42.203125 12.71875 -42.578125 C 14.289062 -42.953125 15.820312 -43.507812 17.3125 -44.25 Z M 5.671875 -4.734375 "/></g></g></g><g fill="#ffffff" fill-opacity="1"><g transform="translate(214.009534, 208.948288)"><g><path d="M 1.171875 -7.953125 C 1.171875 -10.890625 1.816406 -14.035156 3.109375 -17.390625 C 4.410156 -20.742188 6.285156 -23.582031 8.734375 -25.90625 C 11.179688 -28.226562 14.019531 -29.390625 17.25 -29.390625 C 19.625 -29.390625 21.488281 -28.65625 22.84375 -27.1875 C 24.195312 -25.71875 24.875 -23.539062 24.875 -20.65625 C 24.875 -17.71875 24.222656 -14.566406 22.921875 -11.203125 C 21.628906 -7.847656 19.757812 -5.007812 17.3125 -2.6875 C 14.863281 -0.375 12.023438 0.78125 8.796875 0.78125 C 6.421875 0.78125 4.554688 0.046875 3.203125 -1.421875 C 1.847656 -2.890625 1.171875 -5.066406 1.171875 -7.953125 Z M 16.921875 -28.265625 C 15.023438 -28.265625 13.234375 -27.054688 11.546875 -24.640625 C 9.859375 -22.234375 8.503906 -19.222656 7.484375 -15.609375 C 6.460938 -11.992188 5.953125 -8.515625 5.953125 -5.171875 C 5.953125 -3.503906 6.210938 -2.28125 6.734375 -1.5 C 7.253906 -0.71875 8.050781 -0.328125 9.125 -0.328125 C 11.019531 -0.328125 12.8125 -1.53125 14.5 -3.9375 C 16.1875 -6.351562 17.539062 -9.367188 18.5625 -12.984375 C 19.582031 -16.609375 20.09375 -20.09375 20.09375 -23.4375 C 20.09375 -25.101562 19.832031 -26.320312 19.3125 -27.09375 C 18.789062 -27.875 17.992188 -28.265625 16.921875 -28.265625 Z M 16.921875 -28.265625 "/></g></g></g><g fill="#ffffff" fill-opacity="1"><g transform="translate(241.166612, 208.948288)"><g><path d="M 24.65625 -31.671875 C 25.65625 -31.671875 26.441406 -31.390625 27.015625 -30.828125 C 27.597656 -30.273438 27.890625 -29.441406 27.890625 -28.328125 C 27.890625 -27.359375 27.644531 -26.613281 27.15625 -26.09375 C 26.675781 -25.582031 26.101562 -25.328125 25.4375 -25.328125 C 24.726562 -25.328125 24.101562 -25.566406 23.5625 -26.046875 C 23.03125 -26.523438 22.765625 -27.226562 22.765625 -28.15625 C 22.765625 -28.820312 22.929688 -29.601562 23.265625 -30.5 C 21.816406 -29.863281 20.757812 -29.082031 20.09375 -28.15625 C 21.644531 -27.082031 22.421875 -25.414062 22.421875 -23.15625 C 22.421875 -21.519531 22.019531 -19.921875 21.21875 -18.359375 C 20.425781 -16.804688 19.296875 -15.460938 17.828125 -14.328125 C 16.367188 -13.203125 14.675781 -12.453125 12.75 -12.078125 L 10.90625 -11.078125 C 9.164062 -10.148438 7.894531 -9.40625 7.09375 -8.84375 C 6.300781 -8.289062 5.90625 -7.753906 5.90625 -7.234375 C 5.90625 -6.828125 6.160156 -6.472656 6.671875 -6.171875 C 7.191406 -5.878906 8.046875 -5.582031 9.234375 -5.28125 L 13.296875 -4.234375 C 15.410156 -3.671875 16.988281 -3.054688 18.03125 -2.390625 C 19.070312 -1.722656 19.59375 -0.722656 19.59375 0.609375 C 19.59375 2.023438 19.003906 3.53125 17.828125 5.125 C 16.660156 6.71875 14.863281 8.070312 12.4375 9.1875 C 10.007812 10.300781 7.015625 10.859375 3.453125 10.859375 C 0.597656 10.859375 -1.578125 10.484375 -3.078125 9.734375 C -4.585938 8.992188 -5.34375 7.972656 -5.34375 6.671875 C -5.34375 5.410156 -4.65625 4.140625 -3.28125 2.859375 C -1.90625 1.585938 0.0390625 0.578125 2.5625 -0.171875 L 2.953125 0.671875 C 0.535156 1.929688 -0.671875 3.617188 -0.671875 5.734375 C -0.671875 7.140625 -0.179688 8.1875 0.796875 8.875 C 1.785156 9.5625 3.097656 9.90625 4.734375 9.90625 C 6.359375 9.90625 8.039062 9.570312 9.78125 8.90625 C 11.53125 8.238281 12.972656 7.359375 14.109375 6.265625 C 15.242188 5.171875 15.8125 4.03125 15.8125 2.84375 C 15.8125 2.320312 15.660156 1.96875 15.359375 1.78125 C 15.066406 1.59375 14.457031 1.390625 13.53125 1.171875 L 5.015625 -1 C 3.003906 -1.519531 2 -2.632812 2 -4.34375 C 2 -5.488281 2.601562 -6.628906 3.8125 -7.765625 C 5.019531 -8.898438 7.289062 -10.265625 10.625 -11.859375 L 10.234375 -11.859375 C 8.085938 -11.859375 6.34375 -12.367188 5 -13.390625 C 3.664062 -14.410156 3 -15.921875 3 -17.921875 C 3 -19.484375 3.40625 -21.15625 4.21875 -22.9375 C 5.039062 -24.71875 6.359375 -26.238281 8.171875 -27.5 C 9.992188 -28.757812 12.296875 -29.390625 15.078125 -29.390625 C 16.671875 -29.390625 18.007812 -29.144531 19.09375 -28.65625 C 19.789062 -29.550781 20.640625 -30.273438 21.640625 -30.828125 C 22.648438 -31.390625 23.65625 -31.671875 24.65625 -31.671875 Z M 10.796875 -12.859375 C 12.503906 -12.859375 13.859375 -13.515625 14.859375 -14.828125 C 15.859375 -16.148438 16.539062 -17.679688 16.90625 -19.421875 C 17.28125 -21.171875 17.46875 -22.785156 17.46875 -24.265625 C 17.46875 -25.640625 17.28125 -26.671875 16.90625 -27.359375 C 16.539062 -28.046875 15.859375 -28.390625 14.859375 -28.390625 C 13.078125 -28.390625 11.65625 -27.597656 10.59375 -26.015625 C 9.539062 -24.441406 8.816406 -22.707031 8.421875 -20.8125 C 8.035156 -18.925781 7.84375 -17.390625 7.84375 -16.203125 C 7.84375 -13.972656 8.828125 -12.859375 10.796875 -12.859375 Z M 10.796875 -12.859375 "/></g></g></g><g fill="#ffffff" fill-opacity="1"><g transform="translate(266.15336, 208.948288)"><g><path d="M 1.171875 -7.953125 C 1.171875 -10.890625 1.816406 -14.035156 3.109375 -17.390625 C 4.410156 -20.742188 6.285156 -23.582031 8.734375 -25.90625 C 11.179688 -28.226562 14.019531 -29.390625 17.25 -29.390625 C 19.625 -29.390625 21.488281 -28.65625 22.84375 -27.1875 C 24.195312 -25.71875 24.875 -23.539062 24.875 -20.65625 C 24.875 -17.71875 24.222656 -14.566406 22.921875 -11.203125 C 21.628906 -7.847656 19.757812 -5.007812 17.3125 -2.6875 C 14.863281 -0.375 12.023438 0.78125 8.796875 0.78125 C 6.421875 0.78125 4.554688 0.046875 3.203125 -1.421875 C 1.847656 -2.890625 1.171875 -5.066406 1.171875 -7.953125 Z M 16.921875 -28.265625 C 15.023438 -28.265625 13.234375 -27.054688 11.546875 -24.640625 C 9.859375 -22.234375 8.503906 -19.222656 7.484375 -15.609375 C 6.460938 -11.992188 5.953125 -8.515625 5.953125 -5.171875 C 5.953125 -3.503906 6.210938 -2.28125 6.734375 -1.5 C 7.253906 -0.71875 8.050781 -0.328125 9.125 -0.328125 C 11.019531 -0.328125 12.8125 -1.53125 14.5 -3.9375 C 16.1875 -6.351562 17.539062 -9.367188 18.5625 -12.984375 C 19.582031 -16.609375 20.09375 -20.09375 20.09375 -23.4375 C 20.09375 -25.101562 19.832031 -26.320312 19.3125 -27.09375 C 18.789062 -27.875 17.992188 -28.265625 16.921875 -28.265625 Z M 16.921875 -28.265625 "/></g></g></g></svg>